inDegrees=no
num_controls=7
num_derivatives=13
num_iterations=122
num_multipliers=7
num_parameters=0
num_slacks=7
num_states=26
objective=5.253298
objective_accelerations=0.626926
objective_balance=0.024332
objective_effort=0.622331
objective_height=3.886306
objective_ligament=0.093404
solver_duration=1301.057407
status=Solve_Succeeded
success=true
DataType=double
version=3
OpenSimVersion=4.4-2022-07-23-0e9fedc
endheader
time	/jointset/ground_pelvis/pelvis_tilt/value	/jointset/ground_pelvis/pelvis_tx/value	/jointset/ground_pelvis/pelvis_ty/value	/jointset/hip_l/hip_flexion_l/value	/jointset/hip_l/hip_adduction_l/value	/jointset/hip_l/hip_rotation_l/value	/jointset/back/lumbar_extension/value	/jointset/patellofemoral_l/patellar_flexion_l/value	/jointset/knee_l/knee_flexion_l/value	/jointset/knee_l/knee_adduction_l/value	/jointset/knee_l/knee_rotation_l/value	/jointset/ankle_l/ankle_angle_l/value	/jointset/subtalar_l/subtalar_angle_l/value	/jointset/ground_pelvis/pelvis_tilt/speed	/jointset/ground_pelvis/pelvis_tx/speed	/jointset/ground_pelvis/pelvis_ty/speed	/jointset/hip_l/hip_flexion_l/speed	/jointset/hip_l/hip_adduction_l/speed	/jointset/hip_l/hip_rotation_l/speed	/jointset/back/lumbar_extension/speed	/jointset/patellofemoral_l/patellar_flexion_l/speed	/jointset/knee_l/knee_flexion_l/speed	/jointset/knee_l/knee_adduction_l/speed	/jointset/knee_l/knee_rotation_l/speed	/jointset/ankle_l/ankle_angle_l/speed	/jointset/subtalar_l/subtalar_angle_l/speed	/forceset/tau_hip_flexion_l	/forceset/tau_hip_adduction_l	/forceset/tau_hip_rotation_l	/forceset/tau_knee_flexion_l	/forceset/tau_ankle_angle_l	/forceset/tau_subtalar_angle_l	/forceset/tau_lumbar_extension	lambda_cid13_p0	lambda_cid13_p1	lambda_cid13_p2	lambda_cid13_p3	lambda_cid13_p4	lambda_cid13_p5	lambda_cid14_p0	/jointset/ground_pelvis/pelvis_tilt/accel	/jointset/ground_pelvis/pelvis_tx/accel	/jointset/ground_pelvis/pelvis_ty/accel	/jointset/hip_l/hip_flexion_l/accel	/jointset/hip_l/hip_adduction_l/accel	/jointset/hip_l/hip_rotation_l/accel	/jointset/back/lumbar_extension/accel	/jointset/patellofemoral_l/patellar_flexion_l/accel	/jointset/knee_l/knee_flexion_l/accel	/jointset/knee_l/knee_adduction_l/accel	/jointset/knee_l/knee_rotation_l/accel	/jointset/ankle_l/ankle_angle_l/accel	/jointset/subtalar_l/subtalar_angle_l/accel	gamma_cid13_p0	gamma_cid13_p1	gamma_cid13_p2	gamma_cid13_p3	gamma_cid13_p4	gamma_cid13_p5	gamma_cid14_p0
0.5	-0.1576544723407479	-0.07900156448953834	0.7576848705414152	1.156616109510979	-0.3218729845171471	-0.05289152702721563	-0.8106005596680851	1.056311886223066	1.05631188622304	-0.06412311479054947	-0.1745307251445482	0.1317783924187192	0.01561398763785125	-0.2621479151695036	-0.2050839089057144	-0.6050118164747224	2.185869908363661	0.003545825270303303	0.6001974407369206	-0.8119758817749272	2.133709226959098	2.133709226959205	0.2522591124236155	-5.41230807920155e-05	0.3519758421069958	0.1239389454503637	-0.31880927832698	0.005716144218605532	-0.007469194129988747	-0.2678555722724525	0.1350352773515246	0.04643681666658284	0.3582010240585104	-0.6036803035106673	-20.16360816853608	2.876601916989265	-16.97269364132502	-700.6849811626273	-72.95103250942596	-4.526950228287101	0.6671577894055404	0.9640496096978778	-0.2946864385281133	-1.875089193195927	0.3933240351318283	-0.6880315692589806	2.24114325985325	-1.68773587940626	-1.687735879406261	-0.1349962092089565	-0.007763532012013862	-0.5796391448280028	0.2965150410431064	-4.822959184502678e-07	1.459850240456836e-07	3.426497830127056e-06	4.001527748006661e-07	-4.970441466767331e-07	9.218292802619497e-07	-4.30384705130709e-07
0.51	-0.1602420466985036	-0.08100423285984487	0.7516213805470822	1.178377900000689	-0.3218192483716567	-0.0469209083287922	-0.8186077400041499	1.077561464204239	1.077561464204254	-0.06161249924040517	-0.174531224497589	0.135267926743264	0.01686615486751756	-0.2553198888636508	-0.1954553745836835	-0.6075481736916211	2.166204294268322	0.00718409177766644	0.5939014407344195	-0.789397859475751	2.115915291030386	2.115915291030491	0.2498162167222217	-3.901682731884664e-05	0.3458562263243894	0.1264504838436764	-0.3267126045981172	0.005226877471198694	-0.007297060762797085	-0.2726095921818026	0.1354668771214806	0.04596795351188047	0.3657127076781416	-0.8635016475962919	-19.79362911910562	2.679565517362351	-16.76138050309671	-706.969346752411	-72.69160076686768	-3.862075534330975	0.6976387039981228	0.9614937514518508	-0.2125043727151031	-2.054944614920929	0.3459991834124365	-0.6045040064727859	2.275480609208981	-1.868799991366311	-1.868799991366511	-0.3060835050469971	0.007854896645926222	-0.6393110857535992	0.2214401375649741	-3.896617703365732e-07	-7.621972302683377e-09	2.682920709564491e-06	2.875824184444656e-07	-4.050089009734433e-07	7.690501514743335e-07	-3.606062271590318e-07
0.52	-0.1627599380626327	-0.08291076820533172	0.7455366481786915	1.199934504930005	-0.3217297453161169	-0.04101407358854159	-0.8263872703383706	1.09862438731777	1.098624387317827	-0.05912774209815817	-0.1745312313495678	0.1386940272518271	0.01814203086093495	-0.2482113164448886	-0.1858573039417737	-0.6092602912862964	2.144832796284261	0.01069920727998657	0.5874406491028323	-0.7664458814062163	2.096378253431168	2.096378253431272	0.2470874308431308	4.437713091520613e-05	0.3392890789107179	0.1286806982005752	-0.3346159308692477	0.004737610723789069	-0.007124927395472277	-0.2773636120911516	0.1358984768914336	0.04549909035717184	0.3732243912977799	-1.124723781973742	-19.42708381512196	2.487282136779067	-16.61532872373632	-713.3036265514615	-72.51649480731611	-3.250993606539184	0.7232670119873281	0.9579568736737041	-0.1298385140834572	-2.216265970940425	0.3686938341232525	-0.7209898950761566	2.315934413924894	-2.036356213507499	-2.036356213507494	-0.1921742447483731	0.005894008940201908	-0.669145471040955	0.2402502337603791	-2.333183867445443e-07	-4.162904647139412e-07	1.233626347838239e-06	6.225032038234836e-08	-2.604210363230575e-07	3.690738428512797e-07	-2.3863653159814e-07
0.53	-0.1652055424931434	-0.08472155103518798	0.7394389250726445	1.221269235221363	-0.3216051858154342	-0.03517603395457589	-0.8339355019487011	1.119483413449014	1.11948341344906	-0.0566679699273006	-0.1745313095519833	0.1420525113590962	0.01943953630119361	-0.2408750442705011	-0.1763106514503281	-0.6101436409328905	2.121839578366391	0.01419031640975382	0.5801501528439292	-0.7431568005122616	2.07514467155209	2.075144671552207	0.2448134085144588	-4.423778220482439e-05	0.3323445132081062	0.1307734315971154	-0.3420447768892719	0.003954382030667994	-0.006876691936483614	-0.2824210266158098	0.136548265437541	0.04493425440989152	0.3802951993742092	-1.31584924499438	-19.02773507924635	2.285888360925644	-16.4192164206523	-719.4987825070343	-72.35947684372444	-2.69315549008688	0.743966836948718	0.9512998026712982	-0.0465167365613696	-2.381924089234452	0.3359605673664411	-0.7358104529398825	2.341940949198939	-2.209169450665617	-2.209169450663637	-0.253179428165282	-0.01376732453893518	-0.7166241336002556	0.1867870112637797	-1.392054020478821e-07	-6.293117426481443e-07	3.947150196220245e-07	-6.772035668386614e-08	-1.706235456062375e-07	1.411161587282694e-07	-1.648908368782785e-07
